<svg xmlns="http://www.w3.org/2000/svg" enable-background="new 0 0 55 55" viewBox="0 0 55 55"><path d="M52.37,24.97C51.21,13.19,41.81,3.79,30.03,2.62c-7.96-0.79-15.77,2.25-21.07,8.1c-4.73,5.22-7.04,12.26-6.34,19.31
		c1.17,11.78,10.57,21.17,22.34,22.34c0.84,0.08,1.69,0.13,2.53,0.13c7.04,0,13.8-3,18.53-8.22C50.76,39.05,53.07,32.01,52.37,24.97
		z M44.55,42.93c-4.87,5.38-12.07,8.18-19.38,7.45C14.33,49.31,5.69,40.67,4.62,29.83c-0.64-6.49,1.48-12.97,5.83-17.77
		C14.8,7.26,21.02,4.5,27.5,4.5c0.77,0,1.56,0.04,2.33,0.12c10.83,1.08,19.47,9.72,20.55,20.55C51.03,31.65,48.9,38.13,44.55,42.93z
		"/><path d="M27.82,24.26c-1.02-0.09-2.04,0.3-2.73,1.05c-0.61,0.68-0.91,1.59-0.82,2.51c0.15,1.53,1.38,2.75,2.92,2.91
		c0.11,0.01,0.21,0.01,0.32,0.01c0.92,0,1.79-0.39,2.41-1.07c0.62-0.68,0.92-1.59,0.82-2.51C30.58,25.64,29.36,24.42,27.82,24.26z
		 M28.43,28.34c-0.24,0.26-0.57,0.41-0.93,0.41c-0.05,0-0.09,0-0.13-0.01c-0.59-0.06-1.06-0.53-1.11-1.11
		c-0.04-0.36,0.08-0.71,0.32-0.97c0.24-0.26,0.58-0.41,0.93-0.41c0.04,0,0.09,0,0.13,0.01c0.59,0.06,1.06,0.53,1.11,1.12
		C28.78,27.72,28.66,28.08,28.43,28.34z"/><path d="M46.75,26.53L35.11,23.5l3.16-5.38c0.23-0.39,0.17-0.89-0.15-1.21s-0.82-0.39-1.21-0.16l-5.4,3.15L28.47,8.25
		C28.35,7.81,27.96,7.5,27.5,7.5s-0.85,0.31-0.97,0.75L23.5,19.9l-5.4-3.15c-0.39-0.23-0.89-0.17-1.21,0.16s-0.38,0.82-0.15,1.21
		l3.16,5.38L8.25,26.53C7.81,26.65,7.5,27.04,7.5,27.5s0.31,0.85,0.75,0.97L19.9,31.5l-3.16,5.4c-0.23,0.39-0.17,0.89,0.16,1.21
		c0.19,0.19,0.45,0.29,0.71,0.29c0.17,0,0.35-0.04,0.51-0.14l5.4-3.16l3.03,11.65c0.12,0.44,0.51,0.75,0.97,0.75
		s0.85-0.31,0.97-0.75L31.5,35.1l5.39,3.15c0.16,0.09,0.33,0.14,0.5,0.14c0.26,0,0.51-0.1,0.71-0.29c0.32-0.32,0.39-0.82,0.16-1.21
		L35.1,31.5l11.65-3.03c0.44-0.12,0.75-0.51,0.75-0.97S47.19,26.65,46.75,26.53z M34.61,20.4l-1.51,2.57l-0.85-0.22l-0.22-0.85
		L34.61,20.4z M20.4,20.4l2.58,1.51l-0.22,0.85l-0.85,0.22L20.4,20.4z M20.4,34.6l1.51-2.58l0.85,0.22l0.22,0.85L20.4,34.6z
		 M34.6,34.6l-2.57-1.51l0.22-0.85l0.85-0.22L34.6,34.6z M31.17,30.46c-0.35,0.09-0.62,0.37-0.72,0.72L27.5,42.53l-2.96-11.36
		c-0.09-0.35-0.37-0.62-0.72-0.72L12.47,27.5l11.36-2.96c0.35-0.09,0.62-0.37,0.72-0.72l2.96-11.36l2.96,11.36
		c0.09,0.35,0.37,0.62,0.72,0.72l11.36,2.96L31.17,30.46z"/></svg>