<svg xmlns="http://www.w3.org/2000/svg" enable-background="new 0 0 100 100" viewBox="0 0 100 100"><path fill="#f7f8f9" d="M10.1,72.2l15.9-34.3c0.3-0.6,0.9-0.9,1.6-0.9l13.8,1.6c0.1,0,0.3,0,0.4,0l14.5-2.1c0.2,0,0.3,0,0.5,0
		l15.4,2.5c0.5,0.1,0.9,0.4,1.1,0.9l16.5,37.6c0.5,1.1-0.5,2.4-1.7,2.1l-25.9-6.1c-0.3-0.1-0.5-0.1-0.8,0l-24.9,7.9
		c-0.3,0.1-0.6,0.1-0.9,0l-24.5-7.2C10.2,74,9.8,73,10.1,72.2z"/><polygon fill="#64bedd" points="83.3 73.8 61.6 68.7 59.5 57.1 59.1 55 56.5 41.1 69.9 43.3 77.4 60.4 77.4 60.4 78.5 62.8"/><polygon fill="#e45647" points="56.5 41.1 41.7 43.3 36 76.9 61.6 68.8"/><polygon fill="#64bedd" points="41.7 43.3 38.4 62.6 38.1 64.8 36 76.9 15.8 70.9 21.3 59.1 22.1 57.3 29.3 41.9"/><path fill="#314d5c" d="M39.2,18.4c-8,0-14.4,6.5-14.4,14.4c0,7.1,11.4,22.8,13.9,26.3c0.2,0.3,0.7,0.3,1,0
		c2.5-3.4,13.9-19.2,13.9-26.3C53.6,24.9,47.1,18.4,39.2,18.4z"/><circle cx="39.2" cy="32.8" r="8.4" fill="#f7f8f9"/><polygon fill="#f3f3f3" points="78.5 62.8 59.5 57.1 59.3 57 38.2 64.8 38.1 64.8 21.3 59.1 22.1 57.3 38.2 62.7 38.4 62.6 59.1 55 59.2 54.9 77.4 60.4 77.4 60.4"/><polygon fill="#f3f3f3" points="60.2 55.4 58.2 55.8 55.6 41.3 56.5 41.1 57.6 41.3"/></svg>